<svg xmlns="http://www.w3.org/2000/svg" xmlns:xlink="http://www.w3.org/1999/xlink" width="500" zoomAndPan="magnify" viewBox="0 0 375 374.999991" height="500" preserveAspectRatio="xMidYMid meet" version="1.0"><defs><g/><clipPath id="587375b607"><path d="M 40.847656 172.523438 L 334.152344 172.523438 L 334.152344 202.476562 L 40.847656 202.476562 Z M 40.847656 172.523438 " clip-rule="nonzero"/></clipPath></defs><rect x="-37.5" width="450" fill="#ffffff" y="-37.499999" height="449.999989" fill-opacity="1"/><rect x="-37.5" width="450" fill="#fbfaf9" y="-37.499999" height="449.999989" fill-opacity="1"/><g fill="#face36" fill-opacity="1"><g transform="translate(44.477885, 232.008926)"><g><path d="M 41.507812 -61.460938 C 25.144531 -71.171875 18.625 -74.765625 18.625 -80.351562 C 18.625 -83.414062 20.886719 -85.542969 25.277344 -85.542969 C 38.582031 -85.542969 57.070312 -72.902344 72.105469 -52.683594 L 72.902344 -52.683594 L 72.902344 -91.261719 L 72.238281 -91.261719 L 63.722656 -85.941406 C 58.800781 -89 51.351562 -91.527344 42.039062 -91.527344 C 23.546875 -91.527344 8.515625 -84.742188 8.25 -65.851562 C 7.980469 -51.351562 17.425781 -44.566406 28.601562 -37.914062 L 44.035156 -28.46875 C 56.671875 -21.019531 67.582031 -15.964844 67.582031 -9.976562 C 67.582031 -7.449219 65.851562 -4.789062 59.867188 -4.789062 C 49.753906 -4.789062 22.21875 -12.636719 6.121094 -44.566406 L 5.1875 -44.433594 L 7.449219 -3.457031 C 19.421875 -1.730469 30.332031 2.660156 43.238281 2.660156 C 66.25 2.660156 77.691406 -11.441406 77.691406 -25.675781 C 77.691406 -36.984375 70.375 -44.167969 57.472656 -51.75 Z M 41.507812 -61.460938 "/></g></g></g><g fill="#face36" fill-opacity="1"><g transform="translate(122.567132, 232.008926)"><g><path d="M 11.042969 -8.25 L 4.257812 -0.796875 L 4.257812 0 L 43.902344 0 L 43.902344 -0.796875 L 37.117188 -8.25 L 37.117188 -81.550781 L 43.902344 -89 L 43.902344 -89.796875 L 4.257812 -89.796875 L 4.257812 -89 L 11.042969 -81.550781 Z M 11.042969 -8.25 "/></g></g></g><g fill="#face36" fill-opacity="1"><g transform="translate(166.733392, 232.008926)"><g><path d="M 41.507812 -61.460938 C 25.144531 -71.171875 18.625 -74.765625 18.625 -80.351562 C 18.625 -83.414062 20.886719 -85.542969 25.277344 -85.542969 C 38.582031 -85.542969 57.070312 -72.902344 72.105469 -52.683594 L 72.902344 -52.683594 L 72.902344 -91.261719 L 72.238281 -91.261719 L 63.722656 -85.941406 C 58.800781 -89 51.351562 -91.527344 42.039062 -91.527344 C 23.546875 -91.527344 8.515625 -84.742188 8.25 -65.851562 C 7.980469 -51.351562 17.425781 -44.566406 28.601562 -37.914062 L 44.035156 -28.46875 C 56.671875 -21.019531 67.582031 -15.964844 67.582031 -9.976562 C 67.582031 -7.449219 65.851562 -4.789062 59.867188 -4.789062 C 49.753906 -4.789062 22.21875 -12.636719 6.121094 -44.566406 L 5.1875 -44.433594 L 7.449219 -3.457031 C 19.421875 -1.730469 30.332031 2.660156 43.238281 2.660156 C 66.25 2.660156 77.691406 -11.441406 77.691406 -25.675781 C 77.691406 -36.984375 70.375 -44.167969 57.472656 -51.75 Z M 41.507812 -61.460938 "/></g></g></g><g fill="#face36" fill-opacity="1"><g transform="translate(244.822628, 232.008926)"><g><path d="M 26.738281 -89.796875 L 26.738281 -89 L 32.460938 -72.902344 L 0.929688 -0.796875 L 0.929688 0 L 34.988281 0 L 34.988281 -0.796875 C 29 -7.582031 25.675781 -18.492188 25.410156 -31.128906 L 47.226562 -31.128906 L 55.210938 -7.714844 L 48.425781 -0.796875 L 48.425781 0 L 84.476562 0 L 84.476562 -0.796875 L 54.144531 -89.796875 Z M 25.410156 -33.523438 C 25.675781 -42.039062 27.273438 -51.351562 30.464844 -60.53125 L 33.523438 -69.179688 L 34.324219 -69.179688 L 46.429688 -33.523438 Z M 25.410156 -33.523438 "/></g></g></g><g clip-path="url(#587375b607)"><path fill="#fbfaf9" d="M 40.847656 172.523438 L 334.152344 172.523438 L 334.152344 202.476562 L 40.847656 202.476562 Z M 40.847656 172.523438 " fill-opacity="1" fill-rule="nonzero"/></g><g fill="#face36" fill-opacity="1"><g transform="translate(72.914255, 182.999988)"><g><path d="M 4.378906 0.230469 C 6.5 0.230469 7.917969 -0.652344 7.917969 -1.957031 C 7.917969 -3.046875 7.046875 -3.632812 5.023438 -3.910156 L 3.429688 -4.132812 C 2.367188 -4.273438 1.917969 -4.542969 1.917969 -5.003906 C 1.917969 -5.625 2.761719 -6.058594 3.9375 -6.058594 C 5.117188 -6.058594 6.203125 -5.578125 6.730469 -4.898438 L 7.351562 -5.675781 C 6.746094 -6.46875 5.433594 -7.027344 3.929688 -7.027344 C 1.984375 -7.027344 0.605469 -6.230469 0.605469 -4.917969 C 0.605469 -3.863281 1.359375 -3.324219 3.132812 -3.097656 L 4.746094 -2.847656 C 6.046875 -2.664062 6.605469 -2.347656 6.605469 -1.839844 C 6.605469 -1.21875 5.742188 -0.757812 4.449219 -0.757812 C 2.867188 -0.757812 1.410156 -1.429688 0.910156 -2.394531 L 0.191406 -1.628906 C 0.832031 -0.535156 2.492188 0.230469 4.378906 0.230469 Z M 4.378906 0.230469 "/></g></g></g><g fill="#face36" fill-opacity="1"><g transform="translate(88.682542, 182.999988)"><g><path d="M 0.480469 0 L 1.800781 0 L 1.800781 -6.796875 L 0.480469 -6.796875 Z M 0.480469 0 "/></g></g></g><g fill="#face36" fill-opacity="1"><g transform="translate(98.629689, 182.999988)"><g><path d="M 4.378906 0.230469 C 6.5 0.230469 7.917969 -0.652344 7.917969 -1.957031 C 7.917969 -3.046875 7.046875 -3.632812 5.023438 -3.910156 L 3.429688 -4.132812 C 2.367188 -4.273438 1.917969 -4.542969 1.917969 -5.003906 C 1.917969 -5.625 2.761719 -6.058594 3.9375 -6.058594 C 5.117188 -6.058594 6.203125 -5.578125 6.730469 -4.898438 L 7.351562 -5.675781 C 6.746094 -6.46875 5.433594 -7.027344 3.929688 -7.027344 C 1.984375 -7.027344 0.605469 -6.230469 0.605469 -4.917969 C 0.605469 -3.863281 1.359375 -3.324219 3.132812 -3.097656 L 4.746094 -2.847656 C 6.046875 -2.664062 6.605469 -2.347656 6.605469 -1.839844 C 6.605469 -1.21875 5.742188 -0.757812 4.449219 -0.757812 C 2.867188 -0.757812 1.410156 -1.429688 0.910156 -2.394531 L 0.191406 -1.628906 C 0.832031 -0.535156 2.492188 0.230469 4.378906 0.230469 Z M 4.378906 0.230469 "/></g></g></g><g fill="#face36" fill-opacity="1"><g transform="translate(114.397976, 182.999988)"><g><path d="M 3.105469 0 L 4.4375 0 L 4.4375 -5.75 L 7.484375 -5.75 L 7.484375 -6.796875 L 0.0585938 -6.796875 L 0.0585938 -5.75 L 3.105469 -5.75 Z M 3.105469 0 "/></g></g></g><g fill="#face36" fill-opacity="1"><g transform="translate(129.601382, 182.999988)"><g><path d="M 0.480469 0 L 7.332031 0 L 7.332031 -0.96875 L 1.773438 -0.96875 L 1.773438 -3.046875 L 6.851562 -3.046875 L 6.851562 -3.9375 L 1.773438 -3.9375 L 1.773438 -5.816406 L 7.238281 -5.816406 L 7.238281 -6.796875 L 0.480469 -6.796875 Z M 0.480469 0 "/></g></g></g><g fill="#face36" fill-opacity="1"><g transform="translate(144.785632, 182.999988)"><g><path d="M 0.480469 0 L 1.761719 0 L 1.761719 -5.40625 L 1.78125 -5.40625 L 4.734375 0 L 6.066406 0 L 9 -5.40625 L 9.019531 -5.40625 L 9.019531 0 L 10.304688 0 L 10.304688 -6.796875 L 8.433594 -6.796875 L 5.394531 -1.199219 L 5.386719 -1.199219 L 2.328125 -6.796875 L 0.480469 -6.796875 Z M 0.480469 0 "/></g></g></g><g fill="#face36" fill-opacity="1"><g transform="translate(173.660561, 182.999988)"><g><path d="M 0.480469 0 L 1.800781 0 L 1.800781 -6.796875 L 0.480469 -6.796875 Z M 0.480469 0 "/></g></g></g><g fill="#face36" fill-opacity="1"><g transform="translate(183.607708, 182.999988)"><g><path d="M 0.480469 0 L 1.761719 0 L 1.761719 -5.5 L 1.773438 -5.5 L 6.640625 0 L 8.308594 0 L 8.308594 -6.796875 L 7.015625 -6.796875 L 7.015625 -1.304688 L 7.007812 -1.304688 L 2.148438 -6.796875 L 0.480469 -6.796875 Z M 0.480469 0 "/></g></g></g><g fill="#face36" fill-opacity="1"><g transform="translate(200.055762, 182.999988)"><g><path d="M 0.480469 0 L 1.8125 0 L 1.8125 -2.847656 L 6.421875 -2.847656 L 6.421875 -3.777344 L 1.8125 -3.777344 L 1.8125 -5.75 L 6.988281 -5.75 L 6.988281 -6.796875 L 0.480469 -6.796875 Z M 0.480469 0 "/></g></g></g><g fill="#face36" fill-opacity="1"><g transform="translate(214.857046, 182.999988)"><g><path d="M 5.089844 0.238281 C 7.90625 0.238281 9.824219 -1.238281 9.824219 -3.394531 C 9.824219 -5.539062 7.90625 -7.035156 5.089844 -7.035156 C 2.28125 -7.035156 0.363281 -5.539062 0.363281 -3.394531 C 0.363281 -1.238281 2.28125 0.238281 5.089844 0.238281 Z M 5.089844 -0.796875 C 3.085938 -0.796875 1.695312 -1.859375 1.695312 -3.394531 C 1.695312 -4.925781 3.085938 -5.992188 5.089844 -5.992188 C 7.09375 -5.992188 8.492188 -4.925781 8.492188 -3.394531 C 8.492188 -1.859375 7.09375 -0.796875 5.089844 -0.796875 Z M 5.089844 -0.796875 "/></g></g></g><g fill="#face36" fill-opacity="1"><g transform="translate(232.702938, 182.999988)"><g><path d="M 7.582031 0.191406 C 8.109375 0.191406 8.597656 -0.0664062 8.886719 -0.421875 L 8.484375 -1.054688 C 8.339844 -0.832031 8.128906 -0.679688 7.917969 -0.679688 C 7.660156 -0.679688 7.523438 -0.863281 7.410156 -1.09375 L 6.929688 -2.0625 C 6.765625 -2.425781 6.546875 -2.703125 6.21875 -2.875 L 6.21875 -2.886719 C 7.464844 -3.019531 8.234375 -3.746094 8.234375 -4.765625 C 8.234375 -6.019531 7.246094 -6.796875 5.65625 -6.796875 L 0.480469 -6.796875 L 0.480469 0 L 1.8125 0 L 1.8125 -2.636719 L 4.582031 -2.636719 C 5.0625 -2.636719 5.464844 -2.339844 5.695312 -1.859375 L 6.210938 -0.757812 C 6.46875 -0.25 6.863281 0.191406 7.582031 0.191406 Z M 1.8125 -3.554688 L 1.8125 -5.847656 L 5.378906 -5.847656 C 6.308594 -5.847656 6.902344 -5.394531 6.902344 -4.6875 C 6.902344 -4.007812 6.308594 -3.554688 5.378906 -3.554688 Z M 1.8125 -3.554688 "/></g></g></g><g fill="#face36" fill-opacity="1"><g transform="translate(249.246733, 182.999988)"><g><path d="M 0.480469 0 L 1.761719 0 L 1.761719 -5.40625 L 1.78125 -5.40625 L 4.734375 0 L 6.066406 0 L 9 -5.40625 L 9.019531 -5.40625 L 9.019531 0 L 10.304688 0 L 10.304688 -6.796875 L 8.433594 -6.796875 L 5.394531 -1.199219 L 5.386719 -1.199219 L 2.328125 -6.796875 L 0.480469 -6.796875 Z M 0.480469 0 "/></g></g></g><g fill="#face36" fill-opacity="1"><g transform="translate(267.686231, 182.999988)"><g><path d="M 0.0390625 0 L 1.429688 0 L 2.203125 -1.484375 L 6.460938 -1.484375 L 7.238281 0 L 8.636719 0 L 5.128906 -6.796875 L 3.574219 -6.796875 Z M 2.597656 -2.414062 L 4.332031 -5.828125 L 4.351562 -5.828125 L 6.078125 -2.414062 Z M 2.597656 -2.414062 "/></g></g></g><g fill="#face36" fill-opacity="1"><g transform="translate(284.019376, 182.999988)"><g><path d="M 4.378906 0.230469 C 6.5 0.230469 7.917969 -0.652344 7.917969 -1.957031 C 7.917969 -3.046875 7.046875 -3.632812 5.023438 -3.910156 L 3.429688 -4.132812 C 2.367188 -4.273438 1.917969 -4.542969 1.917969 -5.003906 C 1.917969 -5.625 2.761719 -6.058594 3.9375 -6.058594 C 5.117188 -6.058594 6.203125 -5.578125 6.730469 -4.898438 L 7.351562 -5.675781 C 6.746094 -6.46875 5.433594 -7.027344 3.929688 -7.027344 C 1.984375 -7.027344 0.605469 -6.230469 0.605469 -4.917969 C 0.605469 -3.863281 1.359375 -3.324219 3.132812 -3.097656 L 4.746094 -2.847656 C 6.046875 -2.664062 6.605469 -2.347656 6.605469 -1.839844 C 6.605469 -1.21875 5.742188 -0.757812 4.449219 -0.757812 C 2.867188 -0.757812 1.410156 -1.429688 0.910156 -2.394531 L 0.191406 -1.628906 C 0.832031 -0.535156 2.492188 0.230469 4.378906 0.230469 Z M 4.378906 0.230469 "/></g></g></g><g fill="#face36" fill-opacity="1"><g transform="translate(299.787663, 182.999988)"><g><path d="M 0.480469 0 L 1.800781 0 L 1.800781 -6.796875 L 0.480469 -6.796875 Z M 0.480469 0 "/></g></g></g><g fill="#face36" fill-opacity="1"><g transform="translate(80.250192, 195.749987)"><g><path d="M 4.378906 0.230469 C 6.5 0.230469 7.917969 -0.652344 7.917969 -1.957031 C 7.917969 -3.046875 7.046875 -3.632812 5.023438 -3.910156 L 3.429688 -4.132812 C 2.367188 -4.273438 1.917969 -4.542969 1.917969 -5.003906 C 1.917969 -5.625 2.761719 -6.058594 3.9375 -6.058594 C 5.117188 -6.058594 6.203125 -5.578125 6.730469 -4.898438 L 7.351562 -5.675781 C 6.746094 -6.46875 5.433594 -7.027344 3.929688 -7.027344 C 1.984375 -7.027344 0.605469 -6.230469 0.605469 -4.917969 C 0.605469 -3.863281 1.359375 -3.324219 3.132812 -3.097656 L 4.746094 -2.847656 C 6.046875 -2.664062 6.605469 -2.347656 6.605469 -1.839844 C 6.605469 -1.21875 5.742188 -0.757812 4.449219 -0.757812 C 2.867188 -0.757812 1.410156 -1.429688 0.910156 -2.394531 L 0.191406 -1.628906 C 0.832031 -0.535156 2.492188 0.230469 4.378906 0.230469 Z M 4.378906 0.230469 "/></g></g></g><g fill="#face36" fill-opacity="1"><g transform="translate(96.018479, 195.749987)"><g><path d="M 0.0390625 0 L 1.429688 0 L 2.203125 -1.484375 L 6.460938 -1.484375 L 7.238281 0 L 8.636719 0 L 5.128906 -6.796875 L 3.574219 -6.796875 Z M 2.597656 -2.414062 L 4.332031 -5.828125 L 4.351562 -5.828125 L 6.078125 -2.414062 Z M 2.597656 -2.414062 "/></g></g></g><g fill="#face36" fill-opacity="1"><g transform="translate(112.351635, 195.749987)"><g><path d="M 0.480469 0 L 1.761719 0 L 1.761719 -5.40625 L 1.78125 -5.40625 L 4.734375 0 L 6.066406 0 L 9 -5.40625 L 9.019531 -5.40625 L 9.019531 0 L 10.304688 0 L 10.304688 -6.796875 L 8.433594 -6.796875 L 5.394531 -1.199219 L 5.386719 -1.199219 L 2.328125 -6.796875 L 0.480469 -6.796875 Z M 0.480469 0 "/></g></g></g><g fill="#face36" fill-opacity="1"><g transform="translate(130.791133, 195.749987)"><g><path d="M 0.480469 0 L 1.8125 0 L 1.8125 -2.347656 L 5.40625 -2.347656 C 7.140625 -2.347656 8.109375 -3.164062 8.117188 -4.554688 C 8.117188 -5.972656 7.152344 -6.796875 5.414062 -6.796875 L 0.480469 -6.796875 Z M 1.8125 -3.269531 L 1.8125 -5.867188 L 5.078125 -5.867188 C 6.171875 -5.867188 6.785156 -5.386719 6.785156 -4.5625 C 6.785156 -3.746094 6.171875 -3.269531 5.078125 -3.269531 Z M 1.8125 -3.269531 "/></g></g></g><g fill="#face36" fill-opacity="1"><g transform="translate(146.722177, 195.749987)"><g><path d="M 0.0390625 0 L 1.429688 0 L 2.203125 -1.484375 L 6.460938 -1.484375 L 7.238281 0 L 8.636719 0 L 5.128906 -6.796875 L 3.574219 -6.796875 Z M 2.597656 -2.414062 L 4.332031 -5.828125 L 4.351562 -5.828125 L 6.078125 -2.414062 Z M 2.597656 -2.414062 "/></g></g></g><g fill="#face36" fill-opacity="1"><g transform="translate(163.055333, 195.749987)"><g><path d="M 0.480469 0 L 1.8125 0 L 1.8125 -3.046875 L 6.882812 -3.046875 L 6.882812 0 L 8.203125 0 L 8.203125 -6.796875 L 6.882812 -6.796875 L 6.882812 -4.054688 L 1.8125 -4.054688 L 1.8125 -6.796875 L 0.480469 -6.796875 Z M 0.480469 0 "/></g></g></g><g fill="#face36" fill-opacity="1"><g transform="translate(179.398067, 195.749987)"><g/></g></g><g fill="#face36" fill-opacity="1"><g transform="translate(189.833499, 195.749987)"><g><path d="M 0.0390625 0 L 1.429688 0 L 2.203125 -1.484375 L 6.460938 -1.484375 L 7.238281 0 L 8.636719 0 L 5.128906 -6.796875 L 3.574219 -6.796875 Z M 2.597656 -2.414062 L 4.332031 -5.828125 L 4.351562 -5.828125 L 6.078125 -2.414062 Z M 2.597656 -2.414062 "/></g></g></g><g fill="#face36" fill-opacity="1"><g transform="translate(206.166654, 195.749987)"><g><path d="M 0.480469 0 L 1.761719 0 L 1.761719 -5.5 L 1.773438 -5.5 L 6.640625 0 L 8.308594 0 L 8.308594 -6.796875 L 7.015625 -6.796875 L 7.015625 -1.304688 L 7.007812 -1.304688 L 2.148438 -6.796875 L 0.480469 -6.796875 Z M 0.480469 0 "/></g></g></g><g fill="#face36" fill-opacity="1"><g transform="translate(222.614708, 195.749987)"><g><path d="M 0.480469 0 L 4.746094 0 C 7.3125 0 8.742188 -1.21875 8.742188 -3.394531 C 8.742188 -5.578125 7.3125 -6.796875 4.746094 -6.796875 L 0.480469 -6.796875 Z M 1.792969 -1.007812 L 1.792969 -5.769531 L 4.628906 -5.769531 C 6.429688 -5.769531 7.4375 -4.925781 7.4375 -3.394531 C 7.4375 -1.859375 6.429688 -1.007812 4.628906 -1.007812 Z M 1.792969 -1.007812 "/></g></g></g><g fill="#face36" fill-opacity="1"><g transform="translate(239.378711, 195.749987)"><g><path d="M 0.0390625 0 L 1.429688 0 L 2.203125 -1.484375 L 6.460938 -1.484375 L 7.238281 0 L 8.636719 0 L 5.128906 -6.796875 L 3.574219 -6.796875 Z M 2.597656 -2.414062 L 4.332031 -5.828125 L 4.351562 -5.828125 L 6.078125 -2.414062 Z M 2.597656 -2.414062 "/></g></g></g><g fill="#face36" fill-opacity="1"><g transform="translate(255.711866, 195.749987)"><g><path d="M 0.480469 0 L 6.164062 0 L 6.164062 -1.054688 L 1.8125 -1.054688 L 1.8125 -6.796875 L 0.480469 -6.796875 Z M 0.480469 0 "/></g></g></g><g fill="#face36" fill-opacity="1"><g transform="translate(269.613175, 195.749987)"><g><path d="M 0.0390625 0 L 1.429688 0 L 2.203125 -1.484375 L 6.460938 -1.484375 L 7.238281 0 L 8.636719 0 L 5.128906 -6.796875 L 3.574219 -6.796875 Z M 2.597656 -2.414062 L 4.332031 -5.828125 L 4.351562 -5.828125 L 6.078125 -2.414062 Z M 2.597656 -2.414062 "/></g></g></g><g fill="#face36" fill-opacity="1"><g transform="translate(285.946331, 195.749987)"><g><path d="M 0.480469 0 L 1.761719 0 L 1.761719 -5.5 L 1.773438 -5.5 L 6.640625 0 L 8.308594 0 L 8.308594 -6.796875 L 7.015625 -6.796875 L 7.015625 -1.304688 L 7.007812 -1.304688 L 2.148438 -6.796875 L 0.480469 -6.796875 Z M 0.480469 0 "/></g></g></g></svg>